<svg xmlns="http://www.w3.org/2000/svg" viewBox="0 0 1000 170" font-family="'Segoe UI', Arial, sans-serif">
  <defs>
    <marker id="ah2" viewBox="0 0 10 10" refX="9" refY="5" markerWidth="7" markerHeight="7" orient="auto-start-reverse">
      <path d="M0 0 L10 5 L0 10 z" fill="#8A8073"/>
    </marker>
  </defs>

  <g fill="none" stroke="#8A8073" stroke-width="2" marker-end="url(#ah2)">
    <path d="M168 75 L188 75"/>
    <path d="M324 75 L344 75"/>
    <path d="M480 75 L500 75"/>
    <path d="M636 75 L656 75"/>
    <path d="M792 75 L812 75"/>
  </g>

  <!-- step boxes -->
  <g font-size="15" fill="#26201A">
    <rect x="18" y="44" width="150" height="62" rx="10" fill="#EAE5D8" stroke="#C9BFA8"/>
    <text x="93" y="80" text-anchor="middle">Питання</text>

    <rect x="188" y="44" width="136" height="62" rx="10" fill="#E7EEE2" stroke="#A9C29F"/>
    <text x="256" y="72" text-anchor="middle">Qdrant</text>
    <text x="256" y="92" text-anchor="middle" font-size="13" fill="#5A5043">пошук</text>

    <rect x="344" y="44" width="136" height="62" rx="10" fill="#E7EEE2" stroke="#A9C29F"/>
    <text x="412" y="72" text-anchor="middle">Топ репо</text>
    <text x="412" y="92" text-anchor="middle" font-size="13" fill="#5A5043">і моделі</text>

    <rect x="500" y="44" width="136" height="62" rx="10" fill="#F3E8CB" stroke="#D8C074"/>
    <text x="568" y="72" text-anchor="middle">+ факти</text>
    <text x="568" y="92" text-anchor="middle" font-size="13" fill="#8C3A1D">warehouse</text>

    <rect x="656" y="44" width="136" height="62" rx="10" fill="#F4E2DA" stroke="#D8A48F"/>
    <text x="724" y="80" text-anchor="middle" font-weight="600">Claude</text>

    <rect x="812" y="44" width="170" height="62" rx="10" fill="#F3E8CB" stroke="#D8C074"/>
    <text x="897" y="72" text-anchor="middle">Відповідь</text>
    <text x="897" y="92" text-anchor="middle" font-size="13" fill="#8C3A1D">з цитатами</text>
  </g>
</svg>
